<svg width="321" height="167" viewBox="0 0 321 167" fill="none" xmlns="http://www.w3.org/2000/svg">
<g filter="url(#filter0_d_69_25)">
<path d="M114.844 51.5L95.4232 55L106.054 123L125.369 119.5L114.844 51.5Z" fill="#1C1B1F"/>
<path d="M112.444 36L93 39.5L94.407 48.5L113.837 45L112.444 36Z" fill="#1C1B1F"/>
<path d="M108.556 139L128 136.5L126.684 128L107.305 131L108.556 139Z" fill="#1C1B1F"/>
<path d="M93 39.5L92.9114 39.0079L92.4305 39.0945L92.506 39.5772L93 39.5ZM108.556 139L108.062 139.077L108.137 139.558L108.619 139.496L108.556 139ZM128 136.5L128.064 136.996L128.573 136.93L128.494 136.424L128 136.5ZM112.444 36L112.939 35.9235L112.86 35.4171L112.356 35.5079L112.444 36ZM94.407 48.5L93.913 48.5772L94.407 48.5ZM113.837 45L114.332 44.9235L113.837 45ZM114.844 51.5L115.338 51.4235L114.844 51.5ZM106.054 123L105.56 123.077L106.054 123ZM125.369 119.5L125.863 119.424L125.369 119.5ZM108.619 139.496L128.064 136.996L127.936 136.004L108.492 138.504L108.619 139.496ZM112.356 35.5079L92.9114 39.0079L93.0886 39.9921L112.533 36.4921L112.356 35.5079ZM92.506 39.5772L93.913 48.5772L94.901 48.4228L93.494 39.4228L92.506 39.5772ZM114.332 44.9235L112.939 35.9235L111.95 36.0765L113.343 45.0765L114.332 44.9235ZM94.4957 48.9921L113.926 45.4921L113.749 44.5079L94.3184 48.0079L94.4957 48.9921ZM115.338 51.4235L114.332 44.9235L113.343 45.0765L114.349 51.5765L115.338 51.4235ZM93.913 48.5772L94.9292 55.0772L95.9172 54.9228L94.901 48.4228L93.913 48.5772ZM114.755 51.0079L95.3345 54.5079L95.5119 55.4921L114.932 51.9921L114.755 51.0079ZM94.9292 55.0772L105.56 123.077L106.548 122.923L95.9172 54.9228L94.9292 55.0772ZM125.863 119.424L115.338 51.4235L114.349 51.5765L124.875 119.576L125.863 119.424ZM106.143 123.492L125.458 119.992L125.28 119.008L105.965 122.508L106.143 123.492ZM128.494 136.424L127.178 127.924L126.19 128.076L127.506 136.576L128.494 136.424ZM127.178 127.924L125.863 119.424L124.875 119.576L126.19 128.076L127.178 127.924ZM105.56 123.077L106.811 131.077L107.799 130.923L106.548 122.923L105.56 123.077ZM106.811 131.077L108.062 139.077L109.05 138.923L107.799 130.923L106.811 131.077ZM126.608 127.506L107.228 130.506L107.381 131.494L126.761 128.494L126.608 127.506Z" fill="#1A1A2C"/>
<path d="M256.121 103.825L255.662 77.9168L167.658 78.2416L168.138 104.013L256.121 103.825Z" fill="#5751B5"/>
<path d="M276.176 103.783L275.722 77.8428L264.074 77.8858L264.531 103.808L276.176 103.783Z" fill="#5751B5"/>
<path d="M146.951 78.318L146.142 104.06L157.14 104.036L157.304 78.2798L146.951 78.318Z" fill="#5751B5"/>
<path d="M275.722 77.8428L276.222 77.834L276.213 77.341L275.72 77.3428L275.722 77.8428ZM146.951 78.318L146.949 77.818L146.466 77.8198L146.451 78.3023L146.951 78.318ZM146.142 104.06L145.642 104.044L145.626 104.561L146.143 104.56L146.142 104.06ZM276.176 103.783L276.177 104.283L276.685 104.282L276.676 103.774L276.176 103.783ZM264.074 77.8858L264.073 77.3858L264.074 77.8858ZM264.531 103.808L264.532 104.308L264.531 103.808ZM256.121 103.825L256.122 104.325L256.121 103.825ZM167.658 78.2416L167.656 77.7416L167.658 78.2416ZM168.138 104.013L168.139 104.513L168.138 104.013ZM146.451 78.3023L145.642 104.044L146.642 104.075L147.45 78.3337L146.451 78.3023ZM276.676 103.774L276.222 77.834L275.222 77.8515L275.676 103.792L276.676 103.774ZM275.72 77.3428L264.073 77.3858L264.076 78.3858L275.724 78.3428L275.72 77.3428ZM264.532 104.308L276.177 104.283L276.175 103.283L264.53 103.308L264.532 104.308ZM263.574 77.8946L264.031 103.816L265.031 103.799L264.574 77.8769L263.574 77.8946ZM256.122 104.325L264.532 104.308L264.53 103.308L256.12 103.325L256.122 104.325ZM264.073 77.3858L255.66 77.4168L255.664 78.4168L264.076 78.3858L264.073 77.3858ZM256.621 103.817L256.162 77.9079L255.162 77.9257L255.621 103.834L256.621 103.817ZM255.66 77.4168L167.656 77.7416L167.659 78.7416L255.664 78.4168L255.66 77.4168ZM168.139 104.513L256.122 104.325L256.12 103.325L168.137 103.513L168.139 104.513ZM167.158 78.2509L167.638 104.022L168.638 104.004L168.157 78.2323L167.158 78.2509ZM146.143 104.56L157.141 104.536L157.139 103.536L146.141 103.56L146.143 104.56ZM157.141 104.536L168.139 104.513L168.137 103.513L157.139 103.536L157.141 104.536ZM167.656 77.7416L157.302 77.7798L157.306 78.7798L167.659 78.7416L167.656 77.7416ZM157.302 77.7798L146.949 77.818L146.952 78.818L157.306 78.7798L157.302 77.7798ZM157.64 104.04L157.804 78.283L156.804 78.2766L156.64 104.033L157.64 104.04Z" fill="#5751B5"/>
<path d="M69.9865 31C68.1576 33.0026 67.0047 32.6301 63.9865 30C62.919 28.6503 62.9408 28.339 63.9865 28.5C67.0047 31.1301 68.1576 31.5026 69.9865 29.5C71.6963 26.8671 75.4865 30.5 75.4865 30.5C76.1712 31.4007 75.9652 31.6344 75.4865 32C75.0077 32.3656 71.6963 28.3671 69.9865 31Z" fill="#1A1A2C"/>
<path d="M69.9863 48.5C68.1575 50.5026 67.0046 50.1301 63.9863 47.5C62.9189 46.1503 62.9407 45.839 63.9863 46C67.0046 48.6301 68.1575 49.0026 69.9863 47C71.6962 44.3671 75.4863 48 75.4863 48C76.1711 48.9007 75.965 49.1344 75.4863 49.5C75.0076 49.8656 71.6962 45.8671 69.9863 48.5Z" fill="#1A1A2C"/>
<path d="M69.9865 31C68.1576 33.0026 67.0047 32.6301 63.9865 30C62.919 28.6503 62.9408 28.339 63.9865 28.5C67.0047 31.1301 68.1576 31.5026 69.9865 29.5C71.6963 26.8671 75.4865 30.5 75.4865 30.5C76.1712 31.4007 75.9652 31.6344 75.4865 32C75.0077 32.3656 71.6963 28.3671 69.9865 31Z" fill="#1A1A2C"/>
<path d="M69.9863 48.5C68.1575 50.5026 67.0046 50.1301 63.9863 47.5C62.9189 46.1503 62.9407 45.839 63.9863 46C67.0046 48.6301 68.1575 49.0026 69.9863 47C71.6962 44.3671 75.4863 48 75.4863 48C76.1711 48.9007 75.965 49.1344 75.4863 49.5C75.0076 49.8656 71.6962 45.8671 69.9863 48.5Z" fill="#1A1A2C"/>
<path d="M69.9865 31C68.1576 33.0026 67.0047 32.6301 63.9865 30C62.919 28.6503 62.9408 28.339 63.9865 28.5C67.0047 31.1301 68.1576 31.5026 69.9865 29.5C71.6963 26.8671 75.4865 30.5 75.4865 30.5C76.1712 31.4007 75.9652 31.6344 75.4865 32C75.0077 32.3656 71.6963 28.3671 69.9865 31Z" fill="#1A1A2C"/>
<path d="M69.9863 48.5C68.1575 50.5026 67.0046 50.1301 63.9863 47.5C62.9189 46.1503 62.9407 45.839 63.9863 46C67.0046 48.6301 68.1575 49.0026 69.9863 47C71.6962 44.3671 75.4863 48 75.4863 48C76.1711 48.9007 75.965 49.1344 75.4863 49.5C75.0076 49.8656 71.6962 45.8671 69.9863 48.5Z" fill="#1A1A2C"/>
<path d="M69.9865 66C68.1576 68.0026 67.0047 67.6301 63.9865 65C62.919 63.6503 62.9408 63.3389 63.9865 63.5C67.0047 66.1301 68.1576 66.5026 69.9865 64.5C71.6963 61.8671 75.4865 65.5 75.4865 65.5C76.1712 66.4007 75.9652 66.6344 75.4865 67C75.0077 67.3656 71.6963 63.3671 69.9865 66Z" fill="#1A1A2C"/>
<path d="M69.9865 66C68.1576 68.0026 67.0047 67.6301 63.9865 65C62.919 63.6503 62.9408 63.3389 63.9865 63.5C67.0047 66.1301 68.1576 66.5026 69.9865 64.5C71.6963 61.8671 75.4865 65.5 75.4865 65.5C76.1712 66.4007 75.9652 66.6344 75.4865 67C75.0077 67.3656 71.6963 63.3671 69.9865 66Z" fill="#1A1A2C"/>
<path d="M69.9865 66C68.1576 68.0026 67.0047 67.6301 63.9865 65C62.919 63.6503 62.9408 63.3389 63.9865 63.5C67.0047 66.1301 68.1576 66.5026 69.9865 64.5C71.6963 61.8671 75.4865 65.5 75.4865 65.5C76.1712 66.4007 75.9652 66.6344 75.4865 67C75.0077 67.3656 71.6963 63.3671 69.9865 66Z" fill="#1A1A2C"/>
<path d="M63.9865 21.5C67.0047 24.1301 68.1576 24.5026 69.9865 22.5C71.6963 19.8671 75.0077 23.8656 75.4865 23.5C75.9652 23.1344 76.1712 22.9007 75.4865 22C75.4865 22 71.6963 18.3671 69.9865 21C68.1576 23.0026 67.0047 22.6301 63.9865 20C62.9408 19.839 62.919 20.1503 63.9865 21.5Z" fill="#1A1A2C"/>
<path d="M63.9863 39C67.0046 41.6301 68.1575 42.0026 69.9863 40C71.6962 37.3671 75.0076 41.3656 75.4863 41C75.965 40.6344 76.1711 40.4007 75.4863 39.5C75.4863 39.5 71.6962 35.8671 69.9863 38.5C68.1575 40.5026 67.0046 40.1301 63.9863 37.5C62.9407 37.339 62.9189 37.6503 63.9863 39Z" fill="#1A1A2C"/>
<path d="M63.9865 56.5C67.0047 59.1301 68.1576 59.5026 69.9865 57.5C71.6963 54.8671 75.0077 58.8656 75.4865 58.5C75.9652 58.1344 76.1712 57.9007 75.4865 57C75.4865 57 71.6963 53.3671 69.9865 56C68.1576 58.0026 67.0047 57.6301 63.9865 55C62.9408 54.839 62.919 55.1503 63.9865 56.5Z" fill="#1A1A2C"/>
<path d="M63.9863 74C67.0046 76.6301 68.1575 77.0026 69.9863 75C71.6962 72.3671 75.0076 76.3656 75.4863 76C75.965 75.6344 76.1711 75.4007 75.4863 74.5C75.4863 74.5 71.6962 70.8671 69.9863 73.5C68.1575 75.5026 67.0046 75.1301 63.9863 72.5C62.9407 72.3389 62.9189 72.6503 63.9863 74Z" fill="#1A1A2C"/>
<path d="M52.9865 0C65.9883 3.79042 73.3364 3.93113 86.4865 0H52.9865Z" fill="#787680"/>
<path fill-rule="evenodd" clip-rule="evenodd" d="M86.4865 0C73.3364 3.93113 65.9883 3.79042 52.9865 0V137.5C65.4753 139.469 72.8489 139.341 86.4865 137.5V0ZM69.9865 126C75.7854 126 80.4865 121.299 80.4865 115.5C80.4865 109.701 75.7854 105 69.9865 105C64.1875 105 59.4865 109.701 59.4865 115.5C59.4865 121.299 64.1875 126 69.9865 126ZM60.9865 87V10H78.9865V87H60.9865Z" fill="#410001"/>
<path fill-rule="evenodd" clip-rule="evenodd" d="M80.4865 115.5C80.4865 121.299 75.7854 126 69.9865 126C64.1875 126 59.4865 121.299 59.4865 115.5C59.4865 109.701 64.1875 105 69.9865 105C75.7854 105 80.4865 109.701 80.4865 115.5ZM69.9865 121.5C73.5763 121.5 76.4865 118.59 76.4865 115C76.4865 111.41 73.5763 108.5 69.9865 108.5C66.3966 108.5 63.4865 111.41 63.4865 115C63.4865 118.59 66.3966 121.5 69.9865 121.5Z" fill="#5E5C72"/>
<path d="M195.986 121.5C197.989 123.329 197.617 124.482 194.986 127.5C193.637 128.567 193.325 128.546 193.486 127.5C196.117 124.482 196.489 123.329 194.486 121.5C191.854 119.79 195.486 116 195.486 116C196.387 115.315 196.621 115.521 196.986 116C197.352 116.479 193.354 119.79 195.986 121.5Z" fill="#1A1A2C"/>
<path d="M213.486 121.5C215.489 123.329 215.117 124.482 212.486 127.5C211.137 128.568 210.825 128.546 210.986 127.5C213.617 124.482 213.989 123.329 211.986 121.5C209.354 119.79 212.986 116 212.986 116C213.887 115.315 214.121 115.521 214.486 116C214.852 116.479 210.854 119.79 213.486 121.5Z" fill="#1A1A2C"/>
<path d="M195.986 121.5C197.989 123.329 197.617 124.482 194.986 127.5C193.637 128.567 193.325 128.546 193.486 127.5C196.117 124.482 196.489 123.329 194.486 121.5C191.854 119.79 195.486 116 195.486 116C196.387 115.315 196.621 115.521 196.986 116C197.352 116.479 193.354 119.79 195.986 121.5Z" fill="#1A1A2C"/>
<path d="M213.486 121.5C215.489 123.329 215.117 124.482 212.486 127.5C211.137 128.568 210.825 128.546 210.986 127.5C213.617 124.482 213.989 123.329 211.986 121.5C209.354 119.79 212.986 116 212.986 116C213.887 115.315 214.121 115.521 214.486 116C214.852 116.479 210.854 119.79 213.486 121.5Z" fill="#1A1A2C"/>
<path d="M195.986 121.5C197.989 123.329 197.617 124.482 194.986 127.5C193.637 128.567 193.325 128.546 193.486 127.5C196.117 124.482 196.489 123.329 194.486 121.5C191.854 119.79 195.486 116 195.486 116C196.387 115.315 196.621 115.521 196.986 116C197.352 116.479 193.354 119.79 195.986 121.5Z" fill="#1A1A2C"/>
<path d="M213.486 121.5C215.489 123.329 215.117 124.482 212.486 127.5C211.137 128.568 210.825 128.546 210.986 127.5C213.617 124.482 213.989 123.329 211.986 121.5C209.354 119.79 212.986 116 212.986 116C213.887 115.315 214.121 115.521 214.486 116C214.852 116.479 210.854 119.79 213.486 121.5Z" fill="#1A1A2C"/>
<path d="M230.986 121.5C232.989 123.329 232.617 124.482 229.986 127.5C228.637 128.567 228.325 128.546 228.486 127.5C231.117 124.482 231.489 123.329 229.486 121.5C226.854 119.79 230.486 116 230.486 116C231.387 115.315 231.621 115.521 231.986 116C232.352 116.479 228.354 119.79 230.986 121.5Z" fill="#1A1A2C"/>
<path d="M230.986 121.5C232.989 123.329 232.617 124.482 229.986 127.5C228.637 128.567 228.325 128.546 228.486 127.5C231.117 124.482 231.489 123.329 229.486 121.5C226.854 119.79 230.486 116 230.486 116C231.387 115.315 231.621 115.521 231.986 116C232.352 116.479 228.354 119.79 230.986 121.5Z" fill="#1A1A2C"/>
<path d="M230.986 121.5C232.989 123.329 232.617 124.482 229.986 127.5C228.637 128.567 228.325 128.546 228.486 127.5C231.117 124.482 231.489 123.329 229.486 121.5C226.854 119.79 230.486 116 230.486 116C231.387 115.315 231.621 115.521 231.986 116C232.352 116.479 228.354 119.79 230.986 121.5Z" fill="#1A1A2C"/>
<path d="M186.486 127.5C189.117 124.482 189.489 123.329 187.486 121.5C184.854 119.79 188.852 116.479 188.486 116C188.121 115.521 187.887 115.315 186.986 116C186.986 116 183.354 119.79 185.986 121.5C187.989 123.329 187.617 124.482 184.986 127.5C184.825 128.546 185.137 128.567 186.486 127.5Z" fill="#1A1A2C"/>
<path d="M203.986 127.5C206.617 124.482 206.989 123.329 204.986 121.5C202.354 119.79 206.352 116.479 205.986 116C205.621 115.521 205.387 115.315 204.486 116C204.486 116 200.854 119.79 203.486 121.5C205.489 123.329 205.117 124.482 202.486 127.5C202.325 128.546 202.637 128.568 203.986 127.5Z" fill="#1A1A2C"/>
<path d="M221.486 127.5C224.117 124.482 224.489 123.329 222.486 121.5C219.854 119.79 223.852 116.479 223.486 116C223.121 115.521 222.887 115.315 221.986 116C221.986 116 218.354 119.79 220.986 121.5C222.989 123.329 222.617 124.482 219.986 127.5C219.825 128.546 220.137 128.567 221.486 127.5Z" fill="#1A1A2C"/>
<path d="M238.986 127.5C241.617 124.482 241.989 123.329 239.986 121.5C237.354 119.79 241.352 116.479 240.986 116C240.621 115.521 240.387 115.315 239.486 116C239.486 116 235.854 119.79 238.486 121.5C240.489 123.329 240.117 124.482 237.486 127.5C237.325 128.546 237.637 128.568 238.986 127.5Z" fill="#1A1A2C"/>
<path d="M164.986 138.5C168.777 125.498 168.918 118.15 164.986 105L164.986 138.5Z" fill="#7A5267"/>
<path fill-rule="evenodd" clip-rule="evenodd" d="M164.986 105C168.918 118.15 168.777 125.498 164.986 138.5L302.486 138.5C304.456 126.011 304.328 118.638 302.486 105L164.986 105ZM290.986 121.5C290.986 115.701 286.285 111 280.486 111C274.687 111 269.986 115.701 269.986 121.5C269.986 127.299 274.687 132 280.486 132C286.285 132 290.986 127.299 290.986 121.5ZM251.986 130.5L174.986 130.5L174.986 112.5L251.986 112.5L251.986 130.5Z" fill="#47464F"/>
<path fill-rule="evenodd" clip-rule="evenodd" d="M280.486 111C286.285 111 290.986 115.701 290.986 121.5C290.986 127.299 286.285 132 280.486 132C274.687 132 269.986 127.299 269.986 121.5C269.986 115.701 274.687 111 280.486 111ZM286.486 121.5C286.486 117.91 283.576 115 279.986 115C276.397 115 273.486 117.91 273.486 121.5C273.486 125.09 276.397 128 279.986 128C283.576 128 286.486 125.09 286.486 121.5Z" fill="#5E5C72"/>
<path d="M30.9863 31C29.1575 33.0026 28.0046 32.6301 24.9863 30C23.9189 28.6503 23.9407 28.339 24.9863 28.5C28.0046 31.1301 29.1575 31.5026 30.9863 29.5C32.6962 26.8671 36.4863 30.5 36.4863 30.5C37.1711 31.4007 36.965 31.6344 36.4863 32C36.0076 32.3656 32.6962 28.3671 30.9863 31Z" fill="#1A1A2C"/>
<path d="M30.9862 48.5C29.1574 50.5026 28.0045 50.1301 24.9862 47.5C23.9187 46.1503 23.9405 45.839 24.9862 46C28.0045 48.6301 29.1574 49.0026 30.9862 47C32.6961 44.3671 36.4862 48 36.4862 48C37.171 48.9007 36.9649 49.1344 36.4862 49.5C36.0075 49.8656 32.6961 45.8671 30.9862 48.5Z" fill="#1A1A2C"/>
<path d="M30.9863 31C29.1575 33.0026 28.0046 32.6301 24.9863 30C23.9189 28.6503 23.9407 28.339 24.9863 28.5C28.0046 31.1301 29.1575 31.5026 30.9863 29.5C32.6962 26.8671 36.4863 30.5 36.4863 30.5C37.1711 31.4007 36.965 31.6344 36.4863 32C36.0076 32.3656 32.6962 28.3671 30.9863 31Z" fill="#1A1A2C"/>
<path d="M30.9862 48.5C29.1574 50.5026 28.0045 50.1301 24.9862 47.5C23.9187 46.1503 23.9405 45.839 24.9862 46C28.0045 48.6301 29.1574 49.0026 30.9862 47C32.6961 44.3671 36.4862 48 36.4862 48C37.171 48.9007 36.9649 49.1344 36.4862 49.5C36.0075 49.8656 32.6961 45.8671 30.9862 48.5Z" fill="#1A1A2C"/>
<path d="M30.9863 31C29.1575 33.0026 28.0046 32.6301 24.9863 30C23.9189 28.6503 23.9407 28.339 24.9863 28.5C28.0046 31.1301 29.1575 31.5026 30.9863 29.5C32.6962 26.8671 36.4863 30.5 36.4863 30.5C37.1711 31.4007 36.965 31.6344 36.4863 32C36.0076 32.3656 32.6962 28.3671 30.9863 31Z" fill="#1A1A2C"/>
<path d="M30.9862 48.5C29.1574 50.5026 28.0045 50.1301 24.9862 47.5C23.9187 46.1503 23.9405 45.839 24.9862 46C28.0045 48.6301 29.1574 49.0026 30.9862 47C32.6961 44.3671 36.4862 48 36.4862 48C37.171 48.9007 36.9649 49.1344 36.4862 49.5C36.0075 49.8656 32.6961 45.8671 30.9862 48.5Z" fill="#1A1A2C"/>
<path d="M30.9863 66C29.1575 68.0026 28.0046 67.6301 24.9863 65C23.9189 63.6503 23.9407 63.3389 24.9863 63.5C28.0046 66.1301 29.1575 66.5026 30.9863 64.5C32.6962 61.8671 36.4863 65.5 36.4863 65.5C37.1711 66.4007 36.965 66.6344 36.4863 67C36.0076 67.3656 32.6962 63.3671 30.9863 66Z" fill="#1A1A2C"/>
<path d="M30.9863 66C29.1575 68.0026 28.0046 67.6301 24.9863 65C23.9189 63.6503 23.9407 63.3389 24.9863 63.5C28.0046 66.1301 29.1575 66.5026 30.9863 64.5C32.6962 61.8671 36.4863 65.5 36.4863 65.5C37.1711 66.4007 36.965 66.6344 36.4863 67C36.0076 67.3656 32.6962 63.3671 30.9863 66Z" fill="#1A1A2C"/>
<path d="M30.9863 66C29.1575 68.0026 28.0046 67.6301 24.9863 65C23.9189 63.6503 23.9407 63.3389 24.9863 63.5C28.0046 66.1301 29.1575 66.5026 30.9863 64.5C32.6962 61.8671 36.4863 65.5 36.4863 65.5C37.1711 66.4007 36.965 66.6344 36.4863 67C36.0076 67.3656 32.6962 63.3671 30.9863 66Z" fill="#1A1A2C"/>
<path d="M24.9863 21.5C28.0046 24.1301 29.1575 24.5026 30.9863 22.5C32.6962 19.8671 36.0076 23.8656 36.4863 23.5C36.965 23.1344 37.1711 22.9007 36.4863 22C36.4863 22 32.6962 18.3671 30.9863 21C29.1575 23.0026 28.0046 22.6301 24.9863 20C23.9407 19.839 23.9189 20.1503 24.9863 21.5Z" fill="#1A1A2C"/>
<path d="M24.9862 39C28.0045 41.6301 29.1574 42.0026 30.9862 40C32.6961 37.3671 36.0075 41.3656 36.4862 41C36.9649 40.6344 37.171 40.4007 36.4862 39.5C36.4862 39.5 32.6961 35.8671 30.9862 38.5C29.1574 40.5026 28.0045 40.1301 24.9862 37.5C23.9405 37.339 23.9187 37.6503 24.9862 39Z" fill="#1A1A2C"/>
<path d="M24.9863 56.5C28.0046 59.1301 29.1575 59.5026 30.9863 57.5C32.6962 54.8671 36.0076 58.8656 36.4863 58.5C36.965 58.1344 37.1711 57.9007 36.4863 57C36.4863 57 32.6962 53.3671 30.9863 56C29.1575 58.0026 28.0046 57.6301 24.9863 55C23.9407 54.839 23.9189 55.1503 24.9863 56.5Z" fill="#1A1A2C"/>
<path d="M24.9862 74C28.0045 76.6301 29.1574 77.0026 30.9862 75C32.6961 72.3671 36.0075 76.3656 36.4862 76C36.9649 75.6344 37.171 75.4007 36.4862 74.5C36.4862 74.5 32.6961 70.8671 30.9862 73.5C29.1574 75.5026 28.0045 75.1301 24.9862 72.5C23.9405 72.3389 23.9187 72.6503 24.9862 74Z" fill="#1A1A2C"/>
<path d="M13.9863 0C26.9881 3.79042 34.3363 3.93113 47.4863 0H13.9863Z" fill="#7A5267"/>
<path fill-rule="evenodd" clip-rule="evenodd" d="M47.4863 0C34.3363 3.93113 26.9881 3.79042 13.9863 0V137.5C26.4752 139.469 33.8487 139.341 47.4863 137.5V0ZM30.9863 126C36.7853 126 41.4863 121.299 41.4863 115.5C41.4863 109.701 36.7853 105 30.9863 105C25.1873 105 20.4863 109.701 20.4863 115.5C20.4863 121.299 25.1873 126 30.9863 126ZM21.9863 87V10H39.9863V87H21.9863Z" fill="#5751B5"/>
<path fill-rule="evenodd" clip-rule="evenodd" d="M41.4863 115.5C41.4863 121.299 36.7853 126 30.9863 126C25.1873 126 20.4863 121.299 20.4863 115.5C20.4863 109.701 25.1873 105 30.9863 105C36.7853 105 41.4863 109.701 41.4863 115.5ZM30.9863 121.5C34.5762 121.5 37.4863 118.59 37.4863 115C37.4863 111.41 34.5762 108.5 30.9863 108.5C27.3965 108.5 24.4863 111.41 24.4863 115C24.4863 118.59 27.3965 121.5 30.9863 121.5Z" fill="#5E5C72"/>
<path d="M5.27218 141H316.73C317.064 147.588 317.115 151.548 316.73 159H5.27218C3.75234 152.365 3.40825 148.513 5.27218 141Z" fill="#5E5C72"/>
</g>
<defs>
<filter id="filter0_d_69_25" x="0" y="0" width="321" height="167" filterUnits="userSpaceOnUse" color-interpolation-filters="sRGB">
<feFlood flood-opacity="0" result="BackgroundImageFix"/>
<feColorMatrix in="SourceAlpha" type="matrix" values="0 0 0 0 0 0 0 0 0 0 0 0 0 0 0 0 0 0 127 0" result="hardAlpha"/>
<feOffset dy="4"/>
<feGaussianBlur stdDeviation="2"/>
<feComposite in2="hardAlpha" operator="out"/>
<feColorMatrix type="matrix" values="0 0 0 0 0 0 0 0 0 0 0 0 0 0 0 0 0 0 0.25 0"/>
<feBlend mode="normal" in2="BackgroundImageFix" result="effect1_dropShadow_69_25"/>
<feBlend mode="normal" in="SourceGraphic" in2="effect1_dropShadow_69_25" result="shape"/>
</filter>
</defs>
</svg>
