<svg width="265" height="343" viewBox="0 0 265 343" fill="none" xmlns="http://www.w3.org/2000/svg">
<g filter="url(#filter0_d_61_4)">
<path d="M133.403 169.107L143.933 145L168 156.709L139.796 174.273C133.854 175.88 132.108 175.1 133.403 169.107Z" fill="#47464F"/>
<path d="M228.299 174.548L212.776 155.396L212 154.312L227.91 146L238 170.935C237.306 175.05 234.323 175.573 228.299 174.548Z" fill="#47464F"/>
<circle cx="186.5" cy="93.5" r="62.5" fill="#5E5C72" stroke="#787680" stroke-width="22"/>
<rect x="186" y="60" width="2" height="29" fill="#787680"/>
<path d="M211.845 92.4573L211.852 95.3013L191.228 95.9921L191.228 91.015L211.845 92.4573Z" fill="#787680"/>
<circle cx="187.5" cy="93.5" r="5.5" fill="#787680"/>
<path d="M226.7 35.7L224.862 38.5626L228.905 41.4253L230.742 39.2783C236.783 41.7695 240.436 42.844 247.647 43.9301C249.776 44.1097 250.999 43.9678 253.16 43.2144C254.262 42.4988 255.365 41.4253 255.732 39.2783C256.1 37.1313 256.184 34.7723 255.365 30.6903C253.603 24.6137 251.401 21.6526 245.442 17.0928L246.912 13.8723H251.322C253.035 13.0113 253.268 12.3034 252.425 10.6518C252.425 10.6518 248.932 6.35508 244.34 6C242.289 6.26968 241.766 6.72158 242.135 8.14699L243.972 11.3675L241.4 14.5879C232.859 10.1785 227.652 9.66994 217.512 12.7988C214.503 14.2352 212 17.8084 212 17.8084C212 17.8084 218.623 29.1808 226.7 35.7Z" fill="#5E5C72"/>
<path d="M143.968 37.7L145.722 40.5626L141.864 43.4253L140.11 41.2783C134.344 43.7695 130.857 44.844 123.973 45.9301C121.941 46.1097 120.774 45.9678 118.711 45.2144C117.659 44.4988 116.606 43.4253 116.256 41.2783C115.905 39.1313 115.824 36.7723 116.606 32.6903C118.288 26.6137 120.39 23.6526 126.078 19.0928L124.675 15.8723H120.465C118.83 15.0113 118.608 14.3034 119.413 12.6518C119.413 12.6518 122.747 8.35508 127.13 8C129.088 8.26968 129.587 8.72158 129.235 10.147L127.481 13.3675L129.937 16.5879C138.09 12.1785 143.059 11.6699 152.738 14.7988C155.611 16.2352 158 19.8084 158 19.8084C158 19.8084 151.678 31.1808 143.968 37.7Z" fill="#5E5C72"/>
<path fill-rule="evenodd" clip-rule="evenodd" d="M264 181.826V175H165.158C145.971 181.506 148.192 226.795 165.158 226.795C182.123 226.795 264 228 264 228V221.174C264 221.174 185.636 220.816 171.059 221.174C156.482 221.533 153.515 182.965 171.059 181.826C188.603 180.687 264 181.826 264 181.826Z" fill="#E4DFFF"/>
<path d="M165.158 226.795C148.192 226.795 145.971 181.506 165.158 175C165.158 175 62.9962 175 44.5554 175C26.1146 175 26.8522 226.795 44.5554 226.795H165.158Z" fill="#5751B5"/>
<path d="M171.059 221.174C185.636 220.816 264 221.174 264 221.174C247.772 215.553 249.616 188.652 264 181.826C264 181.826 188.603 180.687 171.059 181.826C153.515 182.965 156.482 221.533 171.059 221.174Z" fill="#7A5267"/>
<rect x="85" y="189" width="58" height="23" rx="3" fill="#E4DFFF"/>
<path fill-rule="evenodd" clip-rule="evenodd" d="M55.5 217C48.5964 217 43 209.613 43 200.5C43 191.387 48.5964 184 55.5 184C62.4036 184 68 191.387 68 200.5C68 209.613 62.4036 217 55.5 217ZM47.6247 200.5C47.6247 206.141 51.0891 210.714 55.3628 210.714C59.6364 210.714 63.1009 206.141 63.1009 200.5C63.1009 194.859 59.6364 190.286 55.3628 190.286C51.0891 190.286 47.6247 194.859 47.6247 200.5Z" fill="#7A5267"/>
<path d="M55.3628 210.714C51.0891 210.714 47.6247 206.141 47.6247 200.5C47.6247 194.859 51.0891 190.286 55.3628 190.286C59.6364 190.286 63.1009 194.859 63.1009 200.5C63.1009 206.141 59.6364 210.714 55.3628 210.714Z" fill="white"/>
<path fill-rule="evenodd" clip-rule="evenodd" d="M259 287.697V281H159.309C139.958 287.383 142.198 331.818 159.309 331.818C176.42 331.818 259 333 259 333V326.303C259 326.303 179.963 325.951 165.261 326.303C150.559 326.655 147.566 288.815 165.261 287.697C182.956 286.579 259 287.697 259 287.697Z" fill="#5751B5"/>
<path d="M159.309 331.818C142.198 331.818 139.958 287.383 159.309 281C159.309 281 56.2709 281 37.6718 281C19.0727 281 19.8166 331.818 37.6718 331.818H159.309Z" fill="#10006A"/>
<path d="M165.261 326.303C179.963 325.951 259 326.303 259 326.303C242.633 320.788 244.493 294.394 259 287.697C259 287.697 182.956 286.579 165.261 287.697C147.566 288.815 150.559 326.655 165.261 326.303Z" fill="#FFDAD4"/>
<rect x="78" y="295" width="58" height="23" rx="3" fill="#FFDAD4"/>
<path fill-rule="evenodd" clip-rule="evenodd" d="M48.5 323C41.5964 323 36 315.613 36 306.5C36 297.387 41.5964 290 48.5 290C55.4036 290 61 297.387 61 306.5C61 315.613 55.4036 323 48.5 323ZM40.6247 306.5C40.6247 312.141 44.0891 316.714 48.3628 316.714C52.6364 316.714 56.1009 312.141 56.1009 306.5C56.1009 300.859 52.6364 296.286 48.3628 296.286C44.0891 296.286 40.6247 300.859 40.6247 306.5Z" fill="#5751B5"/>
<path d="M48.3628 316.714C44.0891 316.714 40.6247 312.141 40.6247 306.5C40.6247 300.859 44.0891 296.286 48.3628 296.286C52.6364 296.286 56.1009 300.859 56.1009 306.5C56.1009 312.141 52.6364 316.714 48.3628 316.714Z" fill="white"/>
<path fill-rule="evenodd" clip-rule="evenodd" d="M250 235.697V229H150.309C130.958 235.383 133.198 279.818 150.309 279.818C167.42 279.818 250 281 250 281V274.303C250 274.303 170.963 273.951 156.261 274.303C141.559 274.655 138.566 236.815 156.261 235.697C173.956 234.579 250 235.697 250 235.697Z" fill="#787680"/>
<path d="M150.309 279.818C133.198 279.818 130.958 235.383 150.309 229C150.309 229 47.2709 229 28.6718 229C10.0727 229 10.8166 279.818 28.6718 279.818H150.309Z" fill="#47464F"/>
<path d="M156.261 274.303C170.963 273.951 250 274.303 250 274.303C233.633 268.788 235.493 242.394 250 235.697C250 235.697 173.956 234.579 156.261 235.697C138.566 236.815 141.559 274.655 156.261 274.303Z" fill="#5E5C72"/>
<rect x="69" y="243" width="58" height="23" rx="3" fill="#787680"/>
<path fill-rule="evenodd" clip-rule="evenodd" d="M39.5 271C32.5964 271 27 263.613 27 254.5C27 245.387 32.5964 238 39.5 238C46.4036 238 52 245.387 52 254.5C52 263.613 46.4036 271 39.5 271ZM31.6247 254.5C31.6247 260.141 35.0891 264.714 39.3628 264.714C43.6364 264.714 47.1009 260.141 47.1009 254.5C47.1009 248.859 43.6364 244.286 39.3628 244.286C35.0891 244.286 31.6247 248.859 31.6247 254.5Z" fill="#5E5C72"/>
<path d="M39.3628 264.714C35.0891 264.714 31.6247 260.141 31.6247 254.5C31.6247 248.859 35.0891 244.286 39.3628 244.286C43.6364 244.286 47.1009 248.859 47.1009 254.5C47.1009 260.141 43.6364 264.714 39.3628 264.714Z" fill="white"/>
</g>
<defs>
<filter id="filter0_d_61_4" x="0" y="0" width="265" height="343" filterUnits="userSpaceOnUse" color-interpolation-filters="sRGB">
<feFlood flood-opacity="0" result="BackgroundImageFix"/>
<feColorMatrix in="SourceAlpha" type="matrix" values="0 0 0 0 0 0 0 0 0 0 0 0 0 0 0 0 0 0 127 0" result="hardAlpha"/>
<feOffset dx="-7" dy="2"/>
<feGaussianBlur stdDeviation="4"/>
<feComposite in2="hardAlpha" operator="out"/>
<feColorMatrix type="matrix" values="0 0 0 0 0 0 0 0 0 0 0 0 0 0 0 0 0 0 0.25 0"/>
<feBlend mode="normal" in2="BackgroundImageFix" result="effect1_dropShadow_61_4"/>
<feBlend mode="normal" in="SourceGraphic" in2="effect1_dropShadow_61_4" result="shape"/>
</filter>
</defs>
</svg>
