<svg width="170" height="208" viewBox="0 0 170 208" fill="none" xmlns="http://www.w3.org/2000/svg">
<g filter="url(#filter0_d_58_3)">
<path d="M2.32439 26.1329L2 195.054L9.23517 195.035L9.9009 183.337L38.589 167.516L38.3528 130.65L38.481 22.7441L2.32439 26.1329Z" fill="#787680"/>
<path d="M38.3527 130.65L8.74603 130.822L9.1193 126.74L39.2574 111.433L131.5 110L131.342 130.325L38.3527 130.65Z" fill="#5E5C72"/>
<path d="M2.3244 26.1329L38.0873 11.625L162.305 2L131.348 14.3375L2.3244 26.1329Z" fill="#5E5C72"/>
<path d="M131.333 201.517L138.101 202L163.329 175.695L162.304 2L131.348 14.3375" fill="#787680"/>
<path d="M39.4124 59.8216L131.346 53.7276L131.377 67.7848" fill="#5E5C72"/>
<path d="M131.377 67.7848L10.0518 73.6302L10.1709 69.9725L39.4124 59.8216" fill="#5E5C72"/>
<path d="M38.589 167.516L84.9587 168.984L131.328 170.452L131.333 201.517L9.23523 195.035" fill="#5E5C72"/>
<path d="M131.328 170.452L131.333 201.517L9.23523 195.035V183L38.589 167.516L84.9587 168.984L131.328 170.452Z" fill="#5E5C72"/>
</g>
<defs>
<filter id="filter0_d_58_3" x="0" y="0" width="169.329" height="208" filterUnits="userSpaceOnUse" color-interpolation-filters="sRGB">
<feFlood flood-opacity="0" result="BackgroundImageFix"/>
<feColorMatrix in="SourceAlpha" type="matrix" values="0 0 0 0 0 0 0 0 0 0 0 0 0 0 0 0 0 0 127 0" result="hardAlpha"/>
<feOffset dx="2" dy="2"/>
<feGaussianBlur stdDeviation="2"/>
<feComposite in2="hardAlpha" operator="out"/>
<feColorMatrix type="matrix" values="0 0 0 0 0 0 0 0 0 0 0 0 0 0 0 0 0 0 0.25 0"/>
<feBlend mode="normal" in2="BackgroundImageFix" result="effect1_dropShadow_58_3"/>
<feBlend mode="normal" in="SourceGraphic" in2="effect1_dropShadow_58_3" result="shape"/>
</filter>
</defs>
</svg>
