<svg width="59" height="80" viewBox="0 0 59 80" fill="none" xmlns="http://www.w3.org/2000/svg">
<path d="M54.9108 0H5.84158V65.1613H58.9999V3.87097C58.916 1.09975 58.1627 0.134991 54.9108 0Z" fill="#5751B5"/>
<path d="M5.84158 80C3.75948 73.5624 3.66037 70.2935 5.84158 65.1613V0C1.41502 0.0883784 0.20825 1.39139 0 5.80645V74.4848C0.0138299 77.1035 1.3514 79.9619 3.50495 80H5.84158Z" fill="#10006A"/>
<path fill-rule="evenodd" clip-rule="evenodd" d="M58.2593 66.4516H6.61998C4.75853 70.5825 5.0771 73.3573 6.61998 78.7097H58.1663C55.48 74.2752 55.6409 71.2266 58.2593 66.4516Z" fill="#E4DFFF"/>
<path d="M5.84158 80H58.9999C58.6967 79.5559 58.4189 79.1267 58.1663 78.7097H6.61998C5.0771 73.3573 4.75853 70.5825 6.61998 66.4516H58.2593C58.4876 66.0353 58.7345 65.6059 58.9999 65.1613H5.84158C3.66037 70.2935 3.75948 73.5624 5.84158 80Z" fill="#5E5C72"/>
<path d="M58.9999 65.1613C58.7345 65.6059 58.4876 66.0353 58.2593 66.4516H58.6296C58.9024 66.4544 58.9987 66.333 58.9999 65.8064V65.1613Z" fill="#5E5C72"/>
<path d="M58.1663 78.7097C58.4189 79.1267 58.6967 79.5559 58.9999 80V79.3548C58.9969 78.8784 58.9174 78.7207 58.5831 78.7097H58.1663Z" fill="#5E5C72"/>
<path fill-rule="evenodd" clip-rule="evenodd" d="M46.0288 18.3514C41.9989 12.6879 35.5548 12.5698 31.3805 17.8979C27.2051 12.5698 20.7632 12.6879 16.7311 18.3514C14.1999 21.9059 13.2109 26.8057 13.7642 31.4121H24.752L27.5123 28.371L28.4437 29.1313L31.6529 21.5286L33.9644 32.9326L35.7934 26.8505L37.9934 31.4121H48.9975C49.5508 26.8057 48.5613 21.9059 46.0288 18.3514ZM48.7562 32.9326H37.1736L35.7934 29.8915L33.7231 38.2545L31.3805 25.3299L28.8925 31.4121L27.5123 30.1216L24.752 32.9326H14.0054C14.4803 35.33 15.3889 37.5937 16.7311 39.4795C17.9182 41.1474 30.0649 57.3352 30.0649 57.3352C31.3786 59.181 31.3842 59.181 32.6968 57.3352C32.6968 57.3352 45.8955 39.6669 46.0299 39.4795C47.3724 37.5937 48.2812 35.33 48.7562 32.9326Z" fill="#E4E0F9"/>
</svg>
