<svg width="36" height="36" viewBox="0 0 36 36" fill="none" xmlns="http://www.w3.org/2000/svg">
<g filter="url(#filter0_d_79_16)">
<path d="M15 23.75L24 17L15 10.25V23.75ZM18 2C9.72 2 3 8.72 3 17C3 25.28 9.72 32 18 32C26.28 32 33 25.28 33 17C33 8.72 26.28 2 18 2ZM18 29C11.385 29 6 23.615 6 17C6 10.385 11.385 5 18 5C24.615 5 30 10.385 30 17C30 23.615 24.615 29 18 29Z" fill="#76838A"/>
</g>
<defs>
<filter id="filter0_d_79_16" x="0" y="0" width="36" height="36" filterUnits="userSpaceOnUse" color-interpolation-filters="sRGB">
<feFlood flood-opacity="0" result="BackgroundImageFix"/>
<feColorMatrix in="SourceAlpha" type="matrix" values="0 0 0 0 0 0 0 0 0 0 0 0 0 0 0 0 0 0 127 0" result="hardAlpha"/>
<feOffset dy="1"/>
<feGaussianBlur stdDeviation="1.5"/>
<feComposite in2="hardAlpha" operator="out"/>
<feColorMatrix type="matrix" values="0 0 0 0 0 0 0 0 0 0 0 0 0 0 0 0 0 0 0.25 0"/>
<feBlend mode="normal" in2="BackgroundImageFix" result="effect1_dropShadow_79_16"/>
<feBlend mode="normal" in="SourceGraphic" in2="effect1_dropShadow_79_16" result="shape"/>
</filter>
</defs>
</svg>
